{
DisplayStrings = (
/uniE020,
/uniE024,
/uniE001,
/uniE013,
/uniE026,
/uniE018,
/uniE025,
/uniE021
);
customParameters = (
{
name = glyphOrder;
value = (
    ".notdef",
    A,
    B,
    C,
    D,
    E,
    F,
    G,
    H,
    I,
    J,
    K,
    L,
    M,
    N,
    O,
    P,
    Q,
    R,
    S,
    T,
    U,
    V,
    W,
    X,
    Y,
    Z,
    a,
    b,
    c,
    d,
    e,
    f,
    g,
    h,
    i,
    j,
    k,
    l,
    m,
    n,
    o,
    p,
    q,
    r,
    s,
    t,
    u,
    v,
    w,
    x,
    y,
    z,
    space,
    uniE001,
    uniE002,
    uniE003,
    uniE004,
    uniE005,
    uniE006,
    uniE007,
    uniE008,
    uniE009,
    uniE010,
    uniE011,
    uniE012,
    uniE013,
    uniE014,
    uniE015,
    uniE016,
    uniE017,
    uniE018,
    uniE019,
    uniE020,
    uniE021,
    uniE022,
    uniE023,
    uniE024,
    uniE025,
    uniE026
);
}
);
date = "2013-09-24 15:46:14 +0000";
designer = Readability;
designerURL = "http://readability.com";
familyName = "readabilicons";
fontMaster = (
{
ascender = 2000;
capHeight = 1800;
descender = "-600";
id = "9B1584D5-2C30-4F15-A84E-159D5C2A18F1";
weightValue = 400;
widthValue = 5;
xHeight = 1400;
}
);
glyphs = (
{
glyphname = uniE001;
lastChange = "2013-09-24 17:59:17 -0500";
layers = (
{
layerId = "9B1584D5-2C30-4F15-A84E-159D5C2A18F1";
name = Regular;
paths = (
{
closed = 1;
nodes = (
"1800 -100 LINE",
"1800 900 LINE",
"200 900 LINE",
"200 -100 LINE"
);
},
{
closed = 1;
nodes = (
"1300 700 LINE",
"1300 500 LINE",
"700 500 LINE",
"700 700 LINE"
);
},
{
closed = 1;
nodes = (
"500 1400 LINE",
"100 1200 LINE",
"100 1000 LINE",
"1900 1000 LINE",
"1900 1200 LINE",
"1600 1400 LINE"
);
}
);
width = 2000;
}
);
unicode = E001;
},
{
glyphname = uniE002;
lastChange = "2013-09-24 14:50:37 -0500";
layers = (
{
layerId = "9B1584D5-2C30-4F15-A84E-159D5C2A18F1";
name = Regular;
paths = (
{
closed = 1;
nodes = (
"272 322 LINE",
"272 420 LINE",
"350 420 LINE",
"236 547 LINE",
"121 420 LINE",
"198 420 LINE",
"198 322 LINE"
);
},
{
closed = 1;
nodes = (
"297 377 LINE",
"297 351 LINE",
"395 351 LINE",
"443 301 LINE",
"24 301 LINE",
"78 353 LINE",
"171 353 LINE",
"171 377 LINE",
"76 377 LINE",
"0 301 LINE",
"0 -6 LINE",
"470 -6 LINE",
"470 301 LINE",
"396 377 LINE"
);
},
{
closed = 1;
nodes = (
"149 175 LINE",
"149 222 LINE",
"321 222 LINE",
"321 175 LINE"
);
}
);
width = 2000;
}
);
unicode = E002;
},
{
glyphname = uniE003;
lastChange = "2013-09-24 14:50:37 -0500";
layers = (
{
layerId = "9B1584D5-2C30-4F15-A84E-159D5C2A18F1";
name = Regular;
paths = (
{
closed = 1;
nodes = (
"622 146 LINE",
"618 126 OFFCURVE",
"613 121 OFFCURVE",
"608 121 CURVE SMOOTH",
"602 121 OFFCURVE",
"597 123 OFFCURVE",
"597 134 CURVE SMOOTH",
"597 238 LINE SMOOTH",
"597 287 OFFCURVE",
"579 326 OFFCURVE",
"502 326 CURVE SMOOTH",
"443 326 OFFCURVE",
"386 305 OFFCURVE",
"386 259 CURVE SMOOTH",
"386 239 OFFCURVE",
"399 221 OFFCURVE",
"426 221 CURVE SMOOTH",
"448 221 OFFCURVE",
"464 235 OFFCURVE",
"464 253 CURVE SMOOTH",
"464 265 OFFCURVE",
"460 274 OFFCURVE",
"453 280 CURVE",
"461 283 OFFCURVE",
"471 285 OFFCURVE",
"480 285 CURVE SMOOTH",
"507 285 OFFCURVE",
"520 273 OFFCURVE",
"520 243 CURVE SMOOTH",
"520 226 LINE SMOOTH",
"520 221 OFFCURVE",
"519 221 OFFCURVE",
"493 217 CURVE SMOOTH",
"429 208 OFFCURVE",
"406 194 OFFCURVE",
"392 180 CURVE",
"383 170 OFFCURVE",
"368 155 OFFCURVE",
"368 140 CURVE SMOOTH",
"368 136 OFFCURVE",
"368 133 OFFCURVE",
"369 129 CURVE",
"334 129 LINE",
"232 416 LINE",
"138 416 LINE",
"38 130 LINE",
"0 130 LINE",
"0 77 LINE",
"140 77 LINE",
"140 130 LINE",
"91 130 LINE",
"108 183 LINE",
"216 183 LINE",
"233 129 LINE",
"192 129 LINE",
"192 77 LINE",
"370 77 LINE",
"370 124 LINE",
"378 94 OFFCURVE",
"409 76 OFFCURVE",
"444 76 CURVE SMOOTH",
"480 76 OFFCURVE",
"511 89 OFFCURVE",
"527 130 CURVE",
"530 130 LINE",
"535 92 OFFCURVE",
"554 76 OFFCURVE",
"585 76 CURVE SMOOTH",
"622 76 OFFCURVE",
"641 95 OFFCURVE",
"650 139 CURVE"
);
},
{
closed = 1;
nodes = (
"122 218 LINE",
"160 342 LINE",
"162 342 LINE",
"201 218 LINE"
);
},
{
closed = 1;
nodes = (
"520 177 LINE SMOOTH",
"520 145 OFFCURVE",
"510 123 OFFCURVE",
"488 123 CURVE SMOOTH",
"468 123 OFFCURVE",
"460 137 OFFCURVE",
"460 151 CURVE SMOOTH",
"460 170 OFFCURVE",
"469 181 OFFCURVE",
"498 187 CURVE",
"511 189 OFFCURVE",
"516 190 OFFCURVE",
"520 191 CURVE"
);
}
);
width = 2000;
}
);
unicode = E003;
},
{
glyphname = uniE004;
lastChange = "2013-09-24 14:50:37 -0500";
layers = (
{
layerId = "9B1584D5-2C30-4F15-A84E-159D5C2A18F1";
name = Regular;
paths = (
{
closed = 1;
nodes = (
"73 492 LINE SMOOTH",
"26 492 OFFCURVE",
"0 465 OFFCURVE",
"0 420 CURVE SMOOTH",
"0 74 LINE SMOOTH",
"0 25 OFFCURVE",
"26 0 OFFCURVE",
"71 0 CURVE SMOOTH",
"419 0 LINE SMOOTH",
"465 0 OFFCURVE",
"491 27 OFFCURVE",
"491 72 CURVE SMOOTH",
"491 419 LINE SMOOTH",
"491 466 OFFCURVE",
"466 492 OFFCURVE",
"418 492 CURVE SMOOTH"
);
},
{
closed = 1;
nodes = (
"344 222 LINE",
"344 51 LINE",
"294 51 LINE",
"294 222 LINE",
"246 222 LINE",
"246 281 LINE",
"294 281 LINE",
"294 281 OFFCURVE",
"294 307 OFFCURVE",
"294 336 CURVE SMOOTH",
"294 379 OFFCURVE",
"307 419 OFFCURVE",
"372 419 CURVE SMOOTH",
"399 419 OFFCURVE",
"418 416 OFFCURVE",
"418 416 CURVE",
"416 356 LINE",
"416 356 OFFCURVE",
"397 356 OFFCURVE",
"375 356 CURVE SMOOTH",
"352 356 OFFCURVE",
"344 346 OFFCURVE",
"344 328 CURVE SMOOTH",
"344 325 OFFCURVE",
"344 325 OFFCURVE",
"344 325 CURVE",
"344 320 OFFCURVE",
"344 308 OFFCURVE",
"344 281 CURVE",
"419 281 LINE",
"415 222 LINE"
);
}
);
width = 2000;
}
);
unicode = E004;
},
{
glyphname = uniE005;
lastChange = "2013-09-24 14:50:37 -0500";
layers = (
{
layerId = "9B1584D5-2C30-4F15-A84E-159D5C2A18F1";
name = Regular;
paths = (
{
closed = 1;
nodes = (
"514 397 OFFCURVE",
"493 391 OFFCURVE",
"471 388 CURVE",
"494 402 OFFCURVE",
"511 423 OFFCURVE",
"519 449 CURVE",
"498 437 OFFCURVE",
"474 427 OFFCURVE",
"450 422 CURVE",
"430 444 OFFCURVE",
"401 457 OFFCURVE",
"370 457 CURVE SMOOTH",
"309 457 OFFCURVE",
"260 408 OFFCURVE",
"260 346 CURVE SMOOTH",
"260 338 OFFCURVE",
"261 329 OFFCURVE",
"263 321 CURVE",
"172 326 OFFCURVE",
"91 370 OFFCURVE",
"37 437 CURVE",
"28 421 OFFCURVE",
"22 402 OFFCURVE",
"22 381 CURVE SMOOTH",
"22 343 OFFCURVE",
"42 309 OFFCURVE",
"71 289 CURVE",
"53 290 OFFCURVE",
"36 295 OFFCURVE",
"21 303 CURVE",
"21 302 OFFCURVE",
"21 302 OFFCURVE",
"21 301 CURVE SMOOTH",
"21 248 OFFCURVE",
"59 203 OFFCURVE",
"109 193 CURVE",
"100 190 OFFCURVE",
"90 189 OFFCURVE",
"80 189 CURVE SMOOTH",
"73 189 OFFCURVE",
"66 189 OFFCURVE",
"60 191 CURVE",
"74 147 OFFCURVE",
"114 115 OFFCURVE",
"162 114 CURVE",
"125 84 OFFCURVE",
"77 66 OFFCURVE",
"26 66 CURVE SMOOTH",
"17 66 OFFCURVE",
"8 67 OFFCURVE",
"0 68 CURVE",
"48 36 OFFCURVE",
"106 18 OFFCURVE",
"168 18 CURVE SMOOTH",
"369 18 OFFCURVE",
"479 187 OFFCURVE",
"479 334 CURVE SMOOTH",
"479 338 OFFCURVE",
"479 343 OFFCURVE",
"479 348 CURVE",
"501 364 OFFCURVE",
"519 383 OFFCURVE",
"534 405 CURVE"
);
}
);
width = 2000;
}
);
unicode = E005;
},
{
glyphname = uniE006;
lastChange = "2013-09-24 14:50:37 -0500";
layers = (
{
layerId = "9B1584D5-2C30-4F15-A84E-159D5C2A18F1";
name = Regular;
paths = (
{
closed = 1;
nodes = (
"19 421 LINE",
"554 421 LINE",
"287 206 LINE"
);
},
{
closed = 1;
nodes = (
"19 50 LINE SMOOTH",
"9 50 OFFCURVE",
"0 58 OFFCURVE",
"0 69 CURVE SMOOTH",
"0 389 LINE",
"287 157 LINE",
"573 389 LINE",
"573 69 LINE SMOOTH",
"573 58 OFFCURVE",
"564 50 OFFCURVE",
"554 50 CURVE SMOOTH"
);
}
);
width = 2000;
}
);
unicode = E006;
},
{
glyphname = uniE007;
lastChange = "2013-09-24 17:36:53 -0500";
layers = (
{
layerId = "9B1584D5-2C30-4F15-A84E-159D5C2A18F1";
name = Regular;
paths = (
{
closed = 1;
nodes = (
"1850 890 OFFCURVE",
"1830 900 OFFCURVE",
"1820 900 CURVE SMOOTH",
"1220 900 LINE",
"1030 1470 LINE SMOOTH",
"1030 1490 OFFCURVE",
"1020 1500 OFFCURVE",
"1000 1500 CURVE SMOOTH",
"990 1500 OFFCURVE",
"980 1490 OFFCURVE",
"970 1470 CURVE SMOOTH",
"780 900 LINE",
"190 900 LINE SMOOTH",
"170 900 OFFCURVE",
"160 890 OFFCURVE",
"150 880 CURVE SMOOTH",
"150 870 OFFCURVE",
"150 850 OFFCURVE",
"170 840 CURVE SMOOTH",
"650 490 LINE",
"460 -80 LINE SMOOTH",
"460 -100 OFFCURVE",
"460 -110 OFFCURVE",
"480 -120 CURVE SMOOTH",
"490 -130 OFFCURVE",
"500 -130 OFFCURVE",
"520 -120 CURVE SMOOTH",
"1000 230 LINE",
"1490 -120 LINE SMOOTH",
"1490 -130 OFFCURVE",
"1500 -130 OFFCURVE",
"1510 -130 CURVE SMOOTH",
"1510 -130 OFFCURVE",
"1520 -130 OFFCURVE",
"1530 -120 CURVE SMOOTH",
"1540 -110 OFFCURVE",
"1540 -100 OFFCURVE",
"1540 -80 CURVE SMOOTH",
"1350 490 LINE",
"1840 840 LINE SMOOTH",
"1850 850 OFFCURVE",
"1850 870 OFFCURVE",
"1850 880 CURVE SMOOTH"
);
}
);
width = 2000;
}
);
unicode = E007;
},
{
glyphname = uniE008;
lastChange = "2013-09-24 14:50:37 -0500";
layers = (
{
layerId = "9B1584D5-2C30-4F15-A84E-159D5C2A18F1";
name = Regular;
paths = (
{
closed = 1;
nodes = (
"306 495 LINE SMOOTH",
"332 495 OFFCURVE",
"354 474 OFFCURVE",
"354 448 CURVE SMOOTH",
"354 330 LINE",
"306 330 LINE",
"306 424 LINE",
"47 424 LINE",
"47 118 LINE",
"306 118 LINE",
"306 188 LINE",
"354 188 LINE",
"354 47 LINE SMOOTH",
"354 21 OFFCURVE",
"332 0 OFFCURVE",
"306 0 CURVE SMOOTH",
"47 0 LINE SMOOTH",
"21 0 OFFCURVE",
"0 21 OFFCURVE",
"0 47 CURVE SMOOTH",
"0 448 LINE SMOOTH",
"0 474 OFFCURVE",
"21 495 OFFCURVE",
"47 495 CURVE SMOOTH"
);
},
{
closed = 1;
nodes = (
"259 295 LINE",
"373 303 OFFCURVE",
"419 197 OFFCURVE",
"402 174 CURVE",
"400 195 OFFCURVE",
"340 247 OFFCURVE",
"259 238 CURVE",
"259 164 LINE",
"259 164 OFFCURVE",
"253 176 OFFCURVE",
"160 268 CURVE",
"216 322 OFFCURVE",
"259 373 OFFCURVE",
"259 373 CURVE"
);
}
);
width = 2000;
}
);
unicode = E008;
},
{
glyphname = uniE009;
lastChange = "2013-09-24 14:50:37 -0500";
layers = (
{
layerId = "9B1584D5-2C30-4F15-A84E-159D5C2A18F1";
name = Regular;
paths = (
{
closed = 1;
nodes = (
"91 244 LINE",
"247 400 LINE",
"299 348 LINE",
"195 244 LINE",
"247 192 LINE",
"403 348 LINE",
"267 484 LINE SMOOTH",
"256 495 OFFCURVE",
"238 495 OFFCURVE",
"227 484 CURVE SMOOTH",
"8 264 LINE SMOOTH",
"-3 253 OFFCURVE",
"-3 235 OFFCURVE",
"8 224 CURVE SMOOTH",
"227 4 LINE SMOOTH",
"238 -7 OFFCURVE",
"256 -7 OFFCURVE",
"267 4 CURVE SMOOTH",
"487 224 LINE SMOOTH",
"498 235 OFFCURVE",
"498 253 OFFCURVE",
"487 264 CURVE SMOOTH",
"455 296 LINE",
"247 88 LINE"
);
}
);
width = 2000;
}
);
unicode = E009;
},
{
glyphname = uniE010;
lastChange = "2013-09-24 14:50:37 -0500";
layers = (
{
layerId = "9B1584D5-2C30-4F15-A84E-159D5C2A18F1";
name = Regular;
paths = (
{
closed = 1;
nodes = (
"452 266 LINE",
"452 432 LINE",
"361 432 LINE",
"361 522 LINE",
"91 522 LINE",
"91 266 LINE",
"60 266 LINE SMOOTH",
"27 266 OFFCURVE",
"0 239 OFFCURVE",
"0 206 CURVE SMOOTH",
"0 85 LINE SMOOTH",
"0 52 OFFCURVE",
"27 25 OFFCURVE",
"60 25 CURVE SMOOTH",
"91 25 LINE",
"91 115 LINE",
"452 115 LINE",
"452 25 LINE",
"482 25 LINE SMOOTH",
"515 25 OFFCURVE",
"542 52 OFFCURVE",
"542 85 CURVE SMOOTH",
"542 206 LINE SMOOTH",
"542 239 OFFCURVE",
"515 266 OFFCURVE",
"482 266 CURVE SMOOTH"
);
},
{
closed = 1;
nodes = (
"121 492 LINE",
"331 492 LINE",
"331 402 LINE",
"422 402 LINE",
"422 266 LINE",
"121 266 LINE"
);
},
{
closed = 1;
nodes = (
"121 0 LINE",
"422 0 LINE",
"422 90 LINE",
"121 90 LINE"
);
}
);
width = 2000;
}
);
unicode = E010;
},
{
glyphname = uniE011;
lastChange = "2013-09-24 14:50:37 -0500";
layers = (
{
layerId = "9B1584D5-2C30-4F15-A84E-159D5C2A18F1";
name = Regular;
paths = (
{
closed = 1;
nodes = (
"326 530 LINE",
"326 -26 LINE",
"0 252 LINE"
);
}
);
width = 2000;
}
);
unicode = E011;
},
{
glyphname = uniE012;
lastChange = "2013-09-24 14:50:37 -0500";
layers = (
{
layerId = "9B1584D5-2C30-4F15-A84E-159D5C2A18F1";
name = Regular;
paths = (
{
closed = 1;
nodes = (
"0 530 LINE",
"0 -26 LINE",
"326 252 LINE"
);
}
);
width = 2000;
}
);
unicode = E012;
},
{
glyphname = uniE013;
lastChange = "2013-09-24 18:04:36 -0500";
layers = (
{
layerId = "9B1584D5-2C30-4F15-A84E-159D5C2A18F1";
name = Regular;
paths = (
{
closed = 1;
nodes = (
"1500 -100 LINE",
"1600 900 LINE",
"400 900 LINE SMOOTH",
"500 -100 LINE"
);
},
{
closed = 1;
nodes = (
"1300 1200 LINE",
"1300 1350 LINE",
"1300 1450 OFFCURVE",
"1200 1450 OFFCURVE",
"1100 1450 CURVE SMOOTH",
"900 1450 LINE SMOOTH",
"800 1450 OFFCURVE",
"700 1450 OFFCURVE",
"700 1350 CURVE SMOOTH",
"700 1200 LINE",
"500 1200 LINE SMOOTH",
"300 1200 OFFCURVE",
"300 1200 OFFCURVE",
"300 1200 CURVE SMOOTH",
"300 1000 LINE",
"1700 1000 LINE",
"1700 1200 LINE SMOOTH",
"1700 1200 OFFCURVE",
"1600 1200 OFFCURVE",
"1600 1200 CURVE SMOOTH"
);
},
{
closed = 1;
nodes = (
"850 1200 LINE",
"850 1300 LINE SMOOTH",
"850 1300 OFFCURVE",
"850 1300 OFFCURVE",
"900 1300 CURVE SMOOTH",
"1100 1300 LINE SMOOTH",
"1150 1300 OFFCURVE",
"1150 1300 OFFCURVE",
"1150 1300 CURVE SMOOTH",
"1150 1200 LINE"
);
}
);
width = 2000;
}
);
unicode = E013;
},
{
glyphname = uniE014;
lastChange = "2013-09-24 14:50:37 -0500";
layers = (
{
layerId = "9B1584D5-2C30-4F15-A84E-159D5C2A18F1";
name = Regular;
paths = (
{
closed = 1;
nodes = (
"5 213 LINE SMOOTH",
"-2 207 OFFCURVE",
"-2 197 OFFCURVE",
"5 191 CURVE SMOOTH",
"196 0 LINE SMOOTH",
"202 -6 OFFCURVE",
"212 -6 OFFCURVE",
"218 0 CURVE SMOOTH",
"480 263 LINE",
"493 275 OFFCURVE",
"494 469 OFFCURVE",
"484 479 CURVE SMOOTH",
"475 488 OFFCURVE",
"280 488 OFFCURVE",
"268 475 CURVE"
);
},
{
closed = 1;
nodes = (
"317 352 OFFCURVE",
"317 387 OFFCURVE",
"339 408 CURVE SMOOTH",
"360 429 OFFCURVE",
"394 429 OFFCURVE",
"416 408 CURVE SMOOTH",
"437 387 OFFCURVE",
"437 352 OFFCURVE",
"416 331 CURVE SMOOTH",
"394 310 OFFCURVE",
"360 310 OFFCURVE",
"339 331 CURVE SMOOTH"
);
}
);
width = 2000;
}
);
unicode = E014;
},
{
glyphname = uniE015;
lastChange = "2013-09-24 14:50:37 -0500";
layers = (
{
layerId = "9B1584D5-2C30-4F15-A84E-159D5C2A18F1";
name = Regular;
paths = (
{
closed = 1;
nodes = (
"539 319 LINE",
"337 319 LINE",
"337 521 LINE",
"202 521 LINE",
"202 319 LINE",
"0 319 LINE",
"0 184 LINE",
"202 184 LINE",
"202 -18 LINE",
"337 -18 LINE",
"337 184 LINE",
"539 184 LINE"
);
}
);
width = 2000;
}
);
unicode = E015;
},
{
glyphname = uniE016;
lastChange = "2013-09-24 14:50:37 -0500";
layers = (
{
layerId = "9B1584D5-2C30-4F15-A84E-159D5C2A18F1";
name = Regular;
paths = (
{
closed = 1;
nodes = (
"0 357 LINE",
"548 357 LINE",
"548 467 LINE",
"0 467 LINE"
);
},
{
closed = 1;
nodes = (
"0 193 LINE",
"548 193 LINE",
"548 303 LINE",
"0 303 LINE"
);
},
{
closed = 1;
nodes = (
"0 29 LINE",
"548 29 LINE",
"548 138 LINE",
"0 138 LINE"
);
}
);
width = 2000;
}
);
unicode = E016;
},
{
glyphname = uniE017;
lastChange = "2013-09-24 14:50:37 -0500";
layers = (
{
layerId = "9B1584D5-2C30-4F15-A84E-159D5C2A18F1";
name = Regular;
paths = (
{
closed = 1;
nodes = (
"0 421 LINE",
"0 489 LINE",
"548 489 LINE",
"548 421 LINE"
);
},
{
closed = 1;
nodes = (
"0 281 LINE",
"0 353 LINE",
"548 353 LINE",
"548 281 LINE"
);
},
{
closed = 1;
nodes = (
"0 145 LINE",
"0 213 LINE",
"548 213 LINE",
"548 145 LINE"
);
},
{
closed = 1;
nodes = (
"0 9 LINE",
"0 77 LINE",
"548 77 LINE",
"548 9 LINE"
);
}
);
width = 2000;
}
);
unicode = E017;
},
{
glyphname = uniE018;
lastChange = "2013-09-24 18:30:43 -0500";
layers = (
{
layerId = "9B1584D5-2C30-4F15-A84E-159D5C2A18F1";
name = Regular;
paths = (
{
closed = 1;
nodes = (
"430 -70 OFFCURVE",
"430 -70 OFFCURVE",
"430 10 CURVE",
"300 320 LINE",
"190 320 OFFCURVE",
"100 420 OFFCURVE",
"100 530 CURVE SMOOTH",
"100 640 OFFCURVE",
"190 740 OFFCURVE",
"310 740 CURVE SMOOTH",
"420 740 OFFCURVE",
"500 650 OFFCURVE",
"520 530 CURVE",
"520 530 OFFCURVE",
"570 30 OFFCURVE",
"570 30 CURVE",
"570 -60 OFFCURVE",
"600 -70 OFFCURVE",
"510 -70 CURVE",
"510 -70 LINE"
);
},
{
closed = 1;
nodes = (
"1580 20 LINE",
"1580 -70 OFFCURVE",
"1580 -70 OFFCURVE",
"1500 -70 CURVE SMOOTH",
"1410 -70 OFFCURVE",
"1440 -60 OFFCURVE",
"1440 30 CURVE",
"1490 530 LINE",
"1490 530 OFFCURVE",
"1490 530 OFFCURVE",
"1490 530 CURVE",
"1500 630 OFFCURVE",
"1590 740 OFFCURVE",
"1700 740 CURVE SMOOTH",
"1820 740 OFFCURVE",
"1910 640 OFFCURVE",
"1910 530 CURVE SMOOTH",
"1910 420 OFFCURVE",
"1820 320 OFFCURVE",
"1710 320 CURVE SMOOTH",
"1710 320 LINE"
);
},
{
closed = 1;
nodes = (
"800 460 OFFCURVE",
"650 370 OFFCURVE",
"570 320 CURVE",
"580 320 OFFCURVE",
"580 320 OFFCURVE",
"580 320 CURVE",
"580 280 LINE",
"580 280 LINE",
"600 90 LINE",
"1410 90 LINE",
"1430 310 LINE",
"1370 360 OFFCURVE",
"1220 460 OFFCURVE",
"1000 460 CURVE SMOOTH"
);
},
{
closed = 1;
nodes = (
"1540 710 OFFCURVE",
"1540 710 OFFCURVE",
"1540 710 CURVE",
"1540 720 OFFCURVE",
"1540 750 OFFCURVE",
"1540 770 CURVE SMOOTH",
"1540 770 OFFCURVE",
"1540 770 OFFCURVE",
"1540 770 CURVE SMOOTH",
"1530 790 OFFCURVE",
"1530 800 OFFCURVE",
"1530 810 CURVE",
"1530 810 OFFCURVE",
"1520 820 OFFCURVE",
"1520 820 CURVE SMOOTH",
"1520 830 OFFCURVE",
"1520 850 OFFCURVE",
"1510 860 CURVE SMOOTH",
"1510 860 OFFCURVE",
"1510 860 OFFCURVE",
"1510 860 CURVE SMOOTH",
"1500 880 OFFCURVE",
"1500 890 OFFCURVE",
"1490 910 CURVE",
"1490 910 OFFCURVE",
"1490 910 OFFCURVE",
"1490 910 CURVE",
"1410 1070 OFFCURVE",
"1240 1190 OFFCURVE",
"1050 1210 CURVE SMOOTH",
"1040 1210 OFFCURVE",
"1020 1210 OFFCURVE",
"1010 1210 CURVE SMOOTH",
"1010 1210 OFFCURVE",
"1010 1210 OFFCURVE",
"1000 1210 CURVE SMOOTH",
"1000 1210 LINE",
"1000 1210 LINE SMOOTH",
"1000 1210 OFFCURVE",
"1000 1210 OFFCURVE",
"1000 1210 CURVE SMOOTH",
"980 1210 OFFCURVE",
"970 1210 OFFCURVE",
"960 1210 CURVE SMOOTH",
"760 1190 OFFCURVE",
"600 1070 OFFCURVE",
"520 910 CURVE SMOOTH",
"520 910 OFFCURVE",
"520 910 OFFCURVE",
"520 910 CURVE",
"510 890 OFFCURVE",
"510 880 OFFCURVE",
"500 860 CURVE",
"500 860 OFFCURVE",
"500 860 OFFCURVE",
"500 860 CURVE SMOOTH",
"490 850 OFFCURVE",
"490 830 OFFCURVE",
"480 820 CURVE SMOOTH",
"480 820 OFFCURVE",
"480 810 OFFCURVE",
"480 810 CURVE SMOOTH",
"480 800 OFFCURVE",
"480 790 OFFCURVE",
"470 770 CURVE",
"470 770 OFFCURVE",
"470 770 OFFCURVE",
"470 770 CURVE SMOOTH",
"470 750 OFFCURVE",
"470 720 OFFCURVE",
"470 710 CURVE",
"470 710 OFFCURVE",
"470 710 OFFCURVE",
"470 710 CURVE",
"470 710 OFFCURVE",
"470 710 OFFCURVE",
"470 710 CURVE",
"510 670 OFFCURVE",
"540 610 OFFCURVE",
"550 560 CURVE",
"550 560 OFFCURVE",
"550 560 OFFCURVE",
"550 560 CURVE",
"570 350 LINE",
"630 400 OFFCURVE",
"750 460 OFFCURVE",
"910 480 CURVE SMOOTH",
"920 480 OFFCURVE",
"920 480 OFFCURVE",
"930 490 CURVE SMOOTH",
"950 490 OFFCURVE",
"980 490 OFFCURVE",
"1000 490 CURVE SMOOTH",
"1000 490 OFFCURVE",
"1000 490 OFFCURVE",
"1000 490 CURVE SMOOTH",
"1000 490 OFFCURVE",
"1000 490 OFFCURVE",
"1010 490 CURVE SMOOTH",
"1030 490 OFFCURVE",
"1060 490 OFFCURVE",
"1080 490 CURVE SMOOTH",
"1080 480 OFFCURVE",
"1090 480 OFFCURVE",
"1090 480 CURVE SMOOTH",
"1260 460 OFFCURVE",
"1370 400 OFFCURVE",
"1440 350 CURVE",
"1460 560 LINE",
"1460 560 OFFCURVE",
"1460 560 OFFCURVE",
"1460 560 CURVE",
"1470 610 OFFCURVE",
"1490 670 OFFCURVE",
"1540 710 CURVE",
"1540 710 OFFCURVE",
"1540 710 OFFCURVE",
"1540 710 CURVE SMOOTH"
);
}
);
width = 2000;
}
);
unicode = E018;
},
{
glyphname = uniE019;
lastChange = "2013-09-24 14:50:37 -0500";
layers = (
{
layerId = "9B1584D5-2C30-4F15-A84E-159D5C2A18F1";
name = Regular;
paths = (
{
closed = 1;
nodes = (
"269 -34 LINE",
"0 119 LINE",
"0 459 LINE",
"108 530 LINE",
"403 469 LINE",
"403 148 LINE",
"369 148 LINE",
"369 437 LINE",
"113 498 LINE",
"84 480 LINE",
"333 401 LINE",
"333 58 LINE",
"302 58 LINE",
"302 380 LINE",
"78 474 LINE",
"38 447 LINE",
"269 345 LINE"
);
}
);
width = 2000;
}
);
unicode = E019;
},
{
glyphname = uniE020;
lastChange = "2013-09-24 19:55:02 -0500";
layers = (
{
layerId = "9B1584D5-2C30-4F15-A84E-159D5C2A18F1";
name = Regular;
paths = (
{
closed = 1;
nodes = (
"1300 1400 LINE",
"1300 400 LINE",
"1150 600 LINE",
"1000 400 LINE",
"1000 1400 LINE",
"350 1400 LINE",
"350 -100 LINE",
"1650 -100 LINE",
"1650 1400 LINE"
);
},
{
closed = 1;
nodes = (
"1000 400 LINE",
"1000 400 LINE"
);
},
{
closed = 1;
nodes = (
"1300 400 LINE",
"1300 400 LINE"
);
}
);
width = 2000;
}
);
unicode = E020;
},
{
glyphname = uniE021;
lastChange = "2013-09-24 18:33:14 -0500";
layers = (
{
layerId = "9B1584D5-2C30-4F15-A84E-159D5C2A18F1";
name = Regular;
paths = (
{
closed = 1;
nodes = (
"1700 420 OFFCURVE",
"1700 480 OFFCURVE",
"1700 480 CURVE SMOOTH",
"1700 540 OFFCURVE",
"1700 540 OFFCURVE",
"1700 540 CURVE",
"1460 600 OFFCURVE",
"1400 710 OFFCURVE",
"1520 950 CURVE",
"1520 950 OFFCURVE",
"1460 1010 OFFCURVE",
"1460 1010 CURVE",
"1230 890 OFFCURVE",
"1050 950 OFFCURVE",
"1050 1180 CURVE",
"1050 1180 OFFCURVE",
"990 1180 OFFCURVE",
"990 1180 CURVE SMOOTH",
"990 1180 OFFCURVE",
"930 1180 OFFCURVE",
"870 1180 CURVE",
"870 950 OFFCURVE",
"760 890 OFFCURVE",
"520 1010 CURVE",
"520 1010 OFFCURVE",
"460 950 OFFCURVE",
"460 950 CURVE",
"580 710 OFFCURVE",
"520 600 OFFCURVE",
"290 540 CURVE",
"290 540 OFFCURVE",
"290 540 OFFCURVE",
"290 480 CURVE SMOOTH",
"290 480 OFFCURVE",
"290 420 OFFCURVE",
"290 420 CURVE",
"520 360 OFFCURVE",
"580 240 OFFCURVE",
"460 10 CURVE",
"460 10 OFFCURVE",
"520 -50 OFFCURVE",
"520 -50 CURVE",
"760 70 OFFCURVE",
"870 70 OFFCURVE",
"870 -230 CURVE",
"930 -230 OFFCURVE",
"990 -230 OFFCURVE",
"990 -230 CURVE SMOOTH",
"990 -230 OFFCURVE",
"1050 -230 OFFCURVE",
"1050 -230 CURVE",
"1050 70 OFFCURVE",
"1230 70 OFFCURVE",
"1460 -50 CURVE",
"1460 -50 OFFCURVE",
"1520 10 OFFCURVE",
"1520 10 CURVE",
"1400 240 OFFCURVE",
"1460 360 OFFCURVE",
"1700 420 CURVE"
);
},
{
closed = 1;
nodes = (
"870 300 OFFCURVE",
"760 360 OFFCURVE",
"760 480 CURVE SMOOTH",
"760 600 OFFCURVE",
"870 710 OFFCURVE",
"990 710 CURVE SMOOTH",
"1050 710 OFFCURVE",
"1170 600 OFFCURVE",
"1170 480 CURVE SMOOTH",
"1170 360 OFFCURVE",
"1050 300 OFFCURVE",
"990 300 CURVE SMOOTH"
);
}
);
width = 2000;
}
);
unicode = E021;
},
{
glyphname = uniE022;
lastChange = "2013-09-24 14:50:37 -0500";
layers = (
{
layerId = "9B1584D5-2C30-4F15-A84E-159D5C2A18F1";
name = Regular;
paths = (
{
closed = 1;
nodes = (
"333 476 LINE",
"333 372 LINE",
"333 372 OFFCURVE",
"111 374 OFFCURVE",
"111 167 CURVE",
"111 167 OFFCURVE",
"156 290 OFFCURVE",
"333 290 CURVE",
"333 163 LINE",
"517 326 LINE"
);
},
{
closed = 1;
nodes = (
"74 105 LINE",
"74 363 LINE",
"139 363 LINE",
"185 427 OFFCURVE",
"274 435 OFFCURVE",
"274 435 CURVE SMOOTH",
"0 435 LINE",
"0 30 LINE",
"517 30 LINE",
"517 240 LINE",
"443 162 LINE",
"443 105 LINE"
);
}
);
width = 2000;
}
);
unicode = E022;
},
{
glyphname = uniE023;
lastChange = "2013-09-24 14:50:37 -0500";
layers = (
{
layerId = "9B1584D5-2C30-4F15-A84E-159D5C2A18F1";
name = Regular;
paths = (
{
closed = 1;
nodes = (
"0 378 LINE",
"508 378 LINE",
"254 68 LINE"
);
}
);
width = 2000;
}
);
unicode = E023;
},
{
glyphname = uniE024;
lastChange = "2013-09-24 18:14:09 -0500";
layers = (
{
layerId = "9B1584D5-2C30-4F15-A84E-159D5C2A18F1";
name = Regular;
paths = (
{
closed = 1;
nodes = (
"200 0 LINE SMOOTH",
"200 0 OFFCURVE",
"100 0 OFFCURVE",
"100 -100 CURVE SMOOTH",
"100 -200 OFFCURVE",
"200 -200 OFFCURVE",
"200 -200 CURVE SMOOTH",
"1800 -200 LINE SMOOTH",
"1800 -200 OFFCURVE",
"1900 -200 OFFCURVE",
"1900 -100 CURVE SMOOTH",
"1900 0 OFFCURVE",
"1800 0 OFFCURVE",
"1800 0 CURVE SMOOTH"
);
},
{
closed = 1;
nodes = (
"1800 700 LINE SMOOTH",
"1800 700 OFFCURVE",
"1900 700 OFFCURVE",
"1900 800 CURVE SMOOTH",
"1900 900 OFFCURVE",
"1800 900 OFFCURVE",
"1800 900 CURVE SMOOTH",
"200 900 LINE SMOOTH",
"200 900 OFFCURVE",
"100 900 OFFCURVE",
"100 800 CURVE SMOOTH",
"100 700 OFFCURVE",
"200 700 OFFCURVE",
"200 700 CURVE SMOOTH"
);
},
{
closed = 1;
nodes = (
"1600 250 LINE SMOOTH",
"1600 250 OFFCURVE",
"1700 250 OFFCURVE",
"1700 350 CURVE SMOOTH",
"1700 450 OFFCURVE",
"1600 450 OFFCURVE",
"1600 450 CURVE SMOOTH",
"400 450 LINE SMOOTH",
"400 450 OFFCURVE",
"300 450 OFFCURVE",
"300 350 CURVE SMOOTH",
"300 250 OFFCURVE",
"400 250 OFFCURVE",
"400 250 CURVE SMOOTH"
);
}
);
width = 2000;
}
);
unicode = E024;
},
{
glyphname = uniE025;
lastChange = "2013-09-24 18:31:36 -0500";
layers = (
{
layerId = "9B1584D5-2C30-4F15-A84E-159D5C2A18F1";
name = Regular;
paths = (
{
closed = 1;
nodes = (
"1830 220 LINE",
"1830 220 OFFCURVE",
"1910 300 OFFCURVE",
"1730 830 CURVE SMOOTH",
"1570 1400 OFFCURVE",
"1410 1420 OFFCURVE",
"1410 1420 CURVE",
"120 480 LINE",
"120 480 OFFCURVE",
"120 480 OFFCURVE",
"160 330 CURVE SMOOTH",
"200 220 OFFCURVE",
"200 220 OFFCURVE",
"200 220 CURVE"
);
},
{
closed = 1;
nodes = (
"690 -90 LINE SMOOTH",
"690 -90 OFFCURVE",
"660 -90 OFFCURVE",
"660 -50 CURVE SMOOTH",
"660 140 LINE",
"800 140 LINE",
"800 20 LINE",
"1180 20 LINE",
"1180 140 LINE",
"1330 140 LINE",
"1330 -50 LINE SMOOTH",
"1330 -90 OFFCURVE",
"1290 -90 OFFCURVE",
"1260 -90 CURVE SMOOTH"
);
}
);
width = 2000;
}
);
unicode = E025;
},
{
glyphname = uniE026;
lastChange = "2013-09-24 18:10:12 -0500";
layers = (
{
layerId = "9B1584D5-2C30-4F15-A84E-159D5C2A18F1";
name = Regular;
paths = (
{
closed = 1;
nodes = (
"200 1000 OFFCURVE",
"100 900 OFFCURVE",
"100 800 CURVE SMOOTH",
"100 700 OFFCURVE",
"200 600 OFFCURVE",
"300 600 CURVE SMOOTH",
"400 600 OFFCURVE",
"500 700 OFFCURVE",
"500 800 CURVE SMOOTH",
"500 900 OFFCURVE",
"400 1000 OFFCURVE",
"300 1000 CURVE SMOOTH"
);
},
{
closed = 1;
nodes = (
"900 1000 OFFCURVE",
"800 900 OFFCURVE",
"800 800 CURVE SMOOTH",
"800 700 OFFCURVE",
"900 600 OFFCURVE",
"1000 600 CURVE SMOOTH",
"1100 600 OFFCURVE",
"1200 700 OFFCURVE",
"1200 800 CURVE SMOOTH",
"1200 900 OFFCURVE",
"1100 1000 OFFCURVE",
"1000 1000 CURVE SMOOTH"
);
},
{
closed = 1;
nodes = (
"1600 1000 OFFCURVE",
"1500 900 OFFCURVE",
"1500 800 CURVE SMOOTH",
"1500 700 OFFCURVE",
"1600 600 OFFCURVE",
"1700 600 CURVE SMOOTH",
"1800 600 OFFCURVE",
"1900 700 OFFCURVE",
"1900 800 CURVE SMOOTH",
"1900 900 OFFCURVE",
"1800 1000 OFFCURVE",
"1700 1000 CURVE SMOOTH"
);
}
);
width = 2000;
}
);
unicode = E026;
},
